<?xml version="1.0" encoding="UTF-8" standalone="no"?>
<!DOCTYPE svg PUBLIC "-//W3C//DTD SVG 1.1//EN"
 "http://www.w3.org/Graphics/SVG/1.1/DTD/svg11.dtd">
<!-- Generated by graphviz version 2.38.0 (20140413.2041)
 -->
<!-- Title: controllers_diagram Pages: 1 -->
<svg width="522pt" height="589pt"
 viewBox="0.00 0.00 521.51 589.00" xmlns="http://www.w3.org/2000/svg" xmlns:xlink="http://www.w3.org/1999/xlink">
<g id="graph0" class="graph" transform="scale(1 1) rotate(0) translate(219.821 387.5)">
<title>controllers_diagram</title>
<polygon fill="none" stroke="none" points="-219.821,201.5 -219.821,-387.5 301.688,-387.5 301.688,201.5 -219.821,201.5"/>
<!-- _diagram_info -->
<g id="node1" class="node"><title>_diagram_info</title>
<text text-anchor="start" x="98.3123" y="138.9" font-family="Times,serif" font-size="13.00">Controllers diagram</text>
<text text-anchor="start" x="98.3123" y="151.9" font-family="Times,serif" font-size="13.00">Date: Mar 20 2016 &#45; 20:22</text>
<text text-anchor="start" x="98.3123" y="164.9" font-family="Times,serif" font-size="13.00">Migration version: 23160310064715</text>
<text text-anchor="start" x="98.3123" y="177.9" font-family="Times,serif" font-size="13.00">Generated by RailRoady 1.4.2</text>
<text text-anchor="start" x="98.3123" y="190.9" font-family="Times,serif" font-size="13.00">http://railroady.prestonlee.com</text>
</g>
<!-- ApplicationController -->
<g id="node2" class="node"><title>ApplicationController</title>
<path fill="none" stroke="black" d="M-203.821,-217C-203.821,-217 -88.1792,-217 -88.1792,-217 -82.1792,-217 -76.1792,-223 -76.1792,-229 -76.1792,-229 -76.1792,-297 -76.1792,-297 -76.1792,-303 -82.1792,-309 -88.1792,-309 -88.1792,-309 -203.821,-309 -203.821,-309 -209.821,-309 -215.821,-303 -215.821,-297 -215.821,-297 -215.821,-229 -215.821,-229 -215.821,-223 -209.821,-217 -203.821,-217"/>
<text text-anchor="middle" x="-146" y="-293.8" font-family="Times,serif" font-size="14.00">ApplicationController</text>
<polyline fill="none" stroke="black" points="-215.821,-287 -76.1792,-287 "/>
<polyline fill="none" stroke="black" points="-215.821,-263 -76.1792,-263 "/>
<polyline fill="none" stroke="black" points="-215.821,-239 -76.1792,-239 "/>
<text text-anchor="start" x="-207.821" y="-223.8" font-family="Times,serif" font-size="14.00">_layout</text>
</g>
<!-- CarImagesController -->
<g id="node3" class="node"><title>CarImagesController</title>
<path fill="none" stroke="black" d="M-60.0933,125C-60.0933,125 50.0933,125 50.0933,125 56.0933,125 62.0933,119 62.0933,113 62.0933,113 62.0933,-107 62.0933,-107 62.0933,-113 56.0933,-119 50.0933,-119 50.0933,-119 -60.0933,-119 -60.0933,-119 -66.0933,-119 -72.0933,-113 -72.0933,-107 -72.0933,-107 -72.0933,113 -72.0933,113 -72.0933,119 -66.0933,125 -60.0933,125"/>
<text text-anchor="middle" x="-5" y="-103.8" font-family="Times,serif" font-size="14.00">CarImagesController</text>
<polyline fill="none" stroke="black" points="-72.0933,-97 62.0933,-97 "/>
<text text-anchor="start" x="-64.0933" y="-81.8" font-family="Times,serif" font-size="14.00">create</text>
<text text-anchor="start" x="-64.0933" y="-67.8" font-family="Times,serif" font-size="14.00">destroy</text>
<text text-anchor="start" x="-64.0933" y="-53.8" font-family="Times,serif" font-size="14.00">edit</text>
<text text-anchor="start" x="-64.0933" y="-39.8" font-family="Times,serif" font-size="14.00">index</text>
<text text-anchor="start" x="-64.0933" y="-25.8" font-family="Times,serif" font-size="14.00">new</text>
<text text-anchor="start" x="-64.0933" y="-11.8" font-family="Times,serif" font-size="14.00">show</text>
<text text-anchor="start" x="-64.0933" y="2.2" font-family="Times,serif" font-size="14.00">update</text>
<polyline fill="none" stroke="black" points="-72.0933,9 62.0933,9 "/>
<polyline fill="none" stroke="black" points="-72.0933,33 62.0933,33 "/>
<text text-anchor="start" x="-64.0933" y="48.2" font-family="Times,serif" font-size="14.00">_layout</text>
<text text-anchor="start" x="-64.0933" y="62.2" font-family="Times,serif" font-size="14.00">car_image_params</text>
<text text-anchor="start" x="-64.0933" y="76.2" font-family="Times,serif" font-size="14.00">set_car</text>
<text text-anchor="start" x="-64.0933" y="90.2" font-family="Times,serif" font-size="14.00">set_car_image</text>
<text text-anchor="start" x="-64.0933" y="104.2" font-family="Times,serif" font-size="14.00">set_car_status</text>
<text text-anchor="start" x="-64.0933" y="118.2" font-family="Times,serif" font-size="14.00">set_user</text>
</g>
<!-- CarStatusesController -->
<g id="node4" class="node"><title>CarStatusesController</title>
<path fill="none" stroke="black" d="M102.176,89C102.176,89 217.824,89 217.824,89 223.824,89 229.824,83 229.824,77 229.824,77 229.824,-129 229.824,-129 229.824,-135 223.824,-141 217.824,-141 217.824,-141 102.176,-141 102.176,-141 96.1758,-141 90.1758,-135 90.1758,-129 90.1758,-129 90.1758,77 90.1758,77 90.1758,83 96.1758,89 102.176,89"/>
<text text-anchor="middle" x="160" y="-125.8" font-family="Times,serif" font-size="14.00">CarStatusesController</text>
<polyline fill="none" stroke="black" points="90.1758,-119 229.824,-119 "/>
<text text-anchor="start" x="98.1758" y="-103.8" font-family="Times,serif" font-size="14.00">create</text>
<text text-anchor="start" x="98.1758" y="-89.8" font-family="Times,serif" font-size="14.00">destroy</text>
<text text-anchor="start" x="98.1758" y="-75.8" font-family="Times,serif" font-size="14.00">edit</text>
<text text-anchor="start" x="98.1758" y="-61.8" font-family="Times,serif" font-size="14.00">index</text>
<text text-anchor="start" x="98.1758" y="-47.8" font-family="Times,serif" font-size="14.00">new</text>
<text text-anchor="start" x="98.1758" y="-33.8" font-family="Times,serif" font-size="14.00">show</text>
<text text-anchor="start" x="98.1758" y="-19.8" font-family="Times,serif" font-size="14.00">update</text>
<polyline fill="none" stroke="black" points="90.1758,-13 229.824,-13 "/>
<polyline fill="none" stroke="black" points="90.1758,11 229.824,11 "/>
<text text-anchor="start" x="98.1758" y="26.2" font-family="Times,serif" font-size="14.00">_layout</text>
<text text-anchor="start" x="98.1758" y="40.2" font-family="Times,serif" font-size="14.00">car_status_params</text>
<text text-anchor="start" x="98.1758" y="54.2" font-family="Times,serif" font-size="14.00">set_car</text>
<text text-anchor="start" x="98.1758" y="68.2" font-family="Times,serif" font-size="14.00">set_car_status</text>
<text text-anchor="start" x="98.1758" y="82.2" font-family="Times,serif" font-size="14.00">set_user</text>
</g>
<!-- CarsController -->
<g id="node5" class="node"><title>CarsController</title>
<path fill="none" stroke="black" d="M-23.6035,-163C-23.6035,-163 51.6035,-163 51.6035,-163 57.6035,-163 63.6035,-169 63.6035,-175 63.6035,-175 63.6035,-367 63.6035,-367 63.6035,-373 57.6035,-379 51.6035,-379 51.6035,-379 -23.6035,-379 -23.6035,-379 -29.6035,-379 -35.6035,-373 -35.6035,-367 -35.6035,-367 -35.6035,-175 -35.6035,-175 -35.6035,-169 -29.6035,-163 -23.6035,-163"/>
<text text-anchor="middle" x="14" y="-363.8" font-family="Times,serif" font-size="14.00">CarsController</text>
<polyline fill="none" stroke="black" points="-35.6035,-357 63.6035,-357 "/>
<text text-anchor="start" x="-27.6035" y="-341.8" font-family="Times,serif" font-size="14.00">create</text>
<text text-anchor="start" x="-27.6035" y="-327.8" font-family="Times,serif" font-size="14.00">destroy</text>
<text text-anchor="start" x="-27.6035" y="-313.8" font-family="Times,serif" font-size="14.00">edit</text>
<text text-anchor="start" x="-27.6035" y="-299.8" font-family="Times,serif" font-size="14.00">index</text>
<text text-anchor="start" x="-27.6035" y="-285.8" font-family="Times,serif" font-size="14.00">new</text>
<text text-anchor="start" x="-27.6035" y="-271.8" font-family="Times,serif" font-size="14.00">show</text>
<text text-anchor="start" x="-27.6035" y="-257.8" font-family="Times,serif" font-size="14.00">update</text>
<polyline fill="none" stroke="black" points="-35.6035,-251 63.6035,-251 "/>
<polyline fill="none" stroke="black" points="-35.6035,-227 63.6035,-227 "/>
<text text-anchor="start" x="-27.6035" y="-211.8" font-family="Times,serif" font-size="14.00">_layout</text>
<text text-anchor="start" x="-27.6035" y="-197.8" font-family="Times,serif" font-size="14.00">car_params</text>
<text text-anchor="start" x="-27.6035" y="-183.8" font-family="Times,serif" font-size="14.00">set_car</text>
<text text-anchor="start" x="-27.6035" y="-169.8" font-family="Times,serif" font-size="14.00">set_user</text>
</g>
<!-- UsersController -->
<g id="node6" class="node"><title>UsersController</title>
<path fill="none" stroke="black" d="M192.286,-181C192.286,-181 273.714,-181 273.714,-181 279.714,-181 285.714,-187 285.714,-193 285.714,-193 285.714,-371 285.714,-371 285.714,-377 279.714,-383 273.714,-383 273.714,-383 192.286,-383 192.286,-383 186.286,-383 180.286,-377 180.286,-371 180.286,-371 180.286,-193 180.286,-193 180.286,-187 186.286,-181 192.286,-181"/>
<text text-anchor="middle" x="233" y="-367.8" font-family="Times,serif" font-size="14.00">UsersController</text>
<polyline fill="none" stroke="black" points="180.286,-361 285.714,-361 "/>
<text text-anchor="start" x="188.286" y="-345.8" font-family="Times,serif" font-size="14.00">create</text>
<text text-anchor="start" x="188.286" y="-331.8" font-family="Times,serif" font-size="14.00">destroy</text>
<text text-anchor="start" x="188.286" y="-317.8" font-family="Times,serif" font-size="14.00">edit</text>
<text text-anchor="start" x="188.286" y="-303.8" font-family="Times,serif" font-size="14.00">index</text>
<text text-anchor="start" x="188.286" y="-289.8" font-family="Times,serif" font-size="14.00">new</text>
<text text-anchor="start" x="188.286" y="-275.8" font-family="Times,serif" font-size="14.00">show</text>
<text text-anchor="start" x="188.286" y="-261.8" font-family="Times,serif" font-size="14.00">update</text>
<polyline fill="none" stroke="black" points="180.286,-255 285.714,-255 "/>
<polyline fill="none" stroke="black" points="180.286,-231 285.714,-231 "/>
<text text-anchor="start" x="188.286" y="-215.8" font-family="Times,serif" font-size="14.00">_layout</text>
<text text-anchor="start" x="188.286" y="-201.8" font-family="Times,serif" font-size="14.00">set_user</text>
<text text-anchor="start" x="188.286" y="-187.8" font-family="Times,serif" font-size="14.00">user_params</text>
</g>
</g>
</svg>
