<?xml version="1.0" encoding="UTF-8" standalone="no"?>
<!DOCTYPE svg PUBLIC "-//W3C//DTD SVG 1.1//EN"
 "http://www.w3.org/Graphics/SVG/1.1/DTD/svg11.dtd">
<!-- Generated by graphviz version 2.38.0 (20140413.2041)
 -->
<!-- Title: models_diagram Pages: 1 -->
<svg width="393pt" height="297pt"
 viewBox="0.00 0.00 392.66 297.00" xmlns="http://www.w3.org/2000/svg" xmlns:xlink="http://www.w3.org/1999/xlink">
<g id="graph0" class="graph" transform="scale(1 1) rotate(0) translate(4 293)">
<title>models_diagram</title>
<polygon fill="none" stroke="none" points="-4,4 -4,-293 388.659,-293 388.659,4 -4,4"/>
<!-- _diagram_info -->
<g id="node1" class="node"><title>_diagram_info</title>
<text text-anchor="start" x="8" y="-274.6" font-family="Times,serif" font-size="13.00">Models diagram</text>
<text text-anchor="start" x="8" y="-261.6" font-family="Times,serif" font-size="13.00">Date: Mar 20 2016 &#45; 20:22</text>
<text text-anchor="start" x="8" y="-248.6" font-family="Times,serif" font-size="13.00">Migration version: 23160310064715</text>
<text text-anchor="start" x="8" y="-235.6" font-family="Times,serif" font-size="13.00">Generated by RailRoady 1.4.2</text>
<text text-anchor="start" x="8" y="-222.6" font-family="Times,serif" font-size="13.00">http://railroady.prestonlee.com</text>
</g>
<!-- Admin -->
<g id="node2" class="node"><title>Admin</title>
<ellipse fill="none" stroke="black" cx="259.688" cy="-252.5" rx="34.8458" ry="18"/>
<text text-anchor="middle" x="259.688" y="-248.3" font-family="Times,serif" font-size="14.00">Admin</text>
</g>
<!-- Car -->
<g id="node3" class="node"><title>Car</title>
<ellipse fill="none" stroke="black" cx="339.688" cy="-162" rx="27" ry="18"/>
<text text-anchor="middle" x="339.688" y="-157.8" font-family="Times,serif" font-size="14.00">Car</text>
</g>
<!-- CarStatus -->
<g id="node5" class="node"><title>CarStatus</title>
<ellipse fill="none" stroke="black" cx="339.688" cy="-90" rx="44.4923" ry="18"/>
<text text-anchor="middle" x="339.688" y="-85.8" font-family="Times,serif" font-size="14.00">CarStatus</text>
</g>
<!-- Car&#45;&gt;CarStatus -->
<g id="edge1" class="edge"><title>Car&#45;&gt;CarStatus</title>
<path fill="none" stroke="#79ec4e" d="M339.688,-135.64C339.688,-130.063 339.688,-124.132 339.688,-118.476"/>
<ellipse fill="none" stroke="#79ec4e" cx="339.688" cy="-139.697" rx="4" ry="4"/>
<polygon fill="#79ec4e" stroke="#79ec4e" points="339.688,-118.104 344.188,-108.104 339.688,-113.104 339.688,-108.104 339.688,-108.104 339.688,-108.104 339.688,-113.104 335.188,-108.104 339.688,-118.104 339.688,-118.104"/>
</g>
<!-- CarImage -->
<g id="node4" class="node"><title>CarImage</title>
<ellipse fill="none" stroke="black" cx="339.688" cy="-18" rx="44.9423" ry="18"/>
<text text-anchor="middle" x="339.688" y="-13.8" font-family="Times,serif" font-size="14.00">CarImage</text>
</g>
<!-- CarStatus&#45;&gt;CarImage -->
<g id="edge2" class="edge"><title>CarStatus&#45;&gt;CarImage</title>
<path fill="none" stroke="#260bc1" d="M339.688,-63.6398C339.688,-58.0629 339.688,-52.1319 339.688,-46.4761"/>
<ellipse fill="none" stroke="#260bc1" cx="339.688" cy="-67.6966" rx="4" ry="4"/>
<polygon fill="#260bc1" stroke="#260bc1" points="339.688,-46.1043 344.188,-36.1043 339.688,-41.1043 339.688,-36.1043 339.688,-36.1043 339.688,-36.1043 339.688,-41.1043 335.188,-36.1044 339.688,-46.1043 339.688,-46.1043"/>
</g>
<!-- User -->
<g id="node6" class="node"><title>User</title>
<ellipse fill="none" stroke="black" cx="339.688" cy="-252.5" rx="27" ry="18"/>
<text text-anchor="middle" x="339.688" y="-248.3" font-family="Times,serif" font-size="14.00">User</text>
</g>
<!-- User&#45;&gt;Car -->
<g id="edge3" class="edge"><title>User&#45;&gt;Car</title>
<path fill="none" stroke="#7b5f7c" d="M339.688,-226.189C339.688,-214.971 339.688,-201.752 339.688,-190.311"/>
<ellipse fill="none" stroke="#7b5f7c" cx="339.688" cy="-230.436" rx="4" ry="4"/>
<polygon fill="#7b5f7c" stroke="#7b5f7c" points="339.688,-190.011 344.188,-180.011 339.688,-185.011 339.688,-180.011 339.688,-180.011 339.688,-180.011 339.688,-185.011 335.188,-180.011 339.688,-190.011 339.688,-190.011"/>
</g>
</g>
</svg>
