<?xml version="1.0" encoding="UTF-8" standalone="no"?>
<!DOCTYPE svg PUBLIC "-//W3C//DTD SVG 1.1//EN"
 "http://www.w3.org/Graphics/SVG/1.1/DTD/svg11.dtd">
<!-- Generated by graphviz version 2.38.0 (20140413.2041)
 -->
<!-- Title: models_diagram Pages: 1 -->
<svg width="838pt" height="758pt"
 viewBox="0.00 0.00 838.15 758.00" xmlns="http://www.w3.org/2000/svg" xmlns:xlink="http://www.w3.org/1999/xlink">
<g id="graph0" class="graph" transform="scale(1 1) rotate(0) translate(4 754)">
<title>models_diagram</title>
<polygon fill="none" stroke="none" points="-4,4 -4,-754 834.154,-754 834.154,4 -4,4"/>
<!-- _diagram_info -->
<g id="node1" class="node"><title>_diagram_info</title>
<text text-anchor="start" x="8" y="-665.6" font-family="Times,serif" font-size="13.00">Models diagram</text>
<text text-anchor="start" x="8" y="-652.6" font-family="Times,serif" font-size="13.00">Date: Mar 20 2016 &#45; 20:22</text>
<text text-anchor="start" x="8" y="-639.6" font-family="Times,serif" font-size="13.00">Migration version: 23160310064715</text>
<text text-anchor="start" x="8" y="-626.6" font-family="Times,serif" font-size="13.00">Generated by RailRoady 1.4.2</text>
<text text-anchor="start" x="8" y="-613.6" font-family="Times,serif" font-size="13.00">http://railroady.prestonlee.com</text>
</g>
<!-- Admin -->
<g id="node2" class="node"><title>Admin</title>
<path fill="none" stroke="black" d="M237.053,-537.5C237.053,-537.5 532.323,-537.5 532.323,-537.5 538.323,-537.5 544.323,-543.5 544.323,-549.5 544.323,-549.5 544.323,-737.5 544.323,-737.5 544.323,-743.5 538.323,-749.5 532.323,-749.5 532.323,-749.5 237.053,-749.5 237.053,-749.5 231.053,-749.5 225.053,-743.5 225.053,-737.5 225.053,-737.5 225.053,-549.5 225.053,-549.5 225.053,-543.5 231.053,-537.5 237.053,-537.5"/>
<text text-anchor="middle" x="384.688" y="-734.3" font-family="Times,serif" font-size="14.00">Admin</text>
<polyline fill="none" stroke="black" points="225.053,-727.5 544.323,-727.5 "/>
<text text-anchor="start" x="233.053" y="-712.3" font-family="Times,serif" font-size="14.00">id :integer</text>
<text text-anchor="start" x="233.053" y="-698.3" font-family="Times,serif" font-size="14.00">email :character varying</text>
<text text-anchor="start" x="233.053" y="-684.3" font-family="Times,serif" font-size="14.00">encrypted_password :character varying</text>
<text text-anchor="start" x="233.053" y="-670.3" font-family="Times,serif" font-size="14.00">reset_password_token :character varying</text>
<text text-anchor="start" x="233.053" y="-656.3" font-family="Times,serif" font-size="14.00">reset_password_sent_at :timestamp without time zone</text>
<text text-anchor="start" x="233.053" y="-642.3" font-family="Times,serif" font-size="14.00">remember_created_at :timestamp without time zone</text>
<text text-anchor="start" x="233.053" y="-628.3" font-family="Times,serif" font-size="14.00">sign_in_count :integer</text>
<text text-anchor="start" x="233.053" y="-614.3" font-family="Times,serif" font-size="14.00">current_sign_in_at :timestamp without time zone</text>
<text text-anchor="start" x="233.053" y="-600.3" font-family="Times,serif" font-size="14.00">last_sign_in_at :timestamp without time zone</text>
<text text-anchor="start" x="233.053" y="-586.3" font-family="Times,serif" font-size="14.00">current_sign_in_ip :character varying</text>
<text text-anchor="start" x="233.053" y="-572.3" font-family="Times,serif" font-size="14.00">last_sign_in_ip :character varying</text>
<text text-anchor="start" x="233.053" y="-558.3" font-family="Times,serif" font-size="14.00">created_at :timestamp without time zone</text>
<text text-anchor="start" x="233.053" y="-544.3" font-family="Times,serif" font-size="14.00">updated_at :timestamp without time zone</text>
</g>
<!-- Car -->
<g id="node3" class="node"><title>Car</title>
<path fill="none" stroke="black" d="M573.825,-344.5C573.825,-344.5 797.55,-344.5 797.55,-344.5 803.55,-344.5 809.55,-350.5 809.55,-356.5 809.55,-356.5 809.55,-488.5 809.55,-488.5 809.55,-494.5 803.55,-500.5 797.55,-500.5 797.55,-500.5 573.825,-500.5 573.825,-500.5 567.825,-500.5 561.825,-494.5 561.825,-488.5 561.825,-488.5 561.825,-356.5 561.825,-356.5 561.825,-350.5 567.825,-344.5 573.825,-344.5"/>
<text text-anchor="middle" x="685.688" y="-485.3" font-family="Times,serif" font-size="14.00">Car</text>
<polyline fill="none" stroke="black" points="561.825,-478.5 809.55,-478.5 "/>
<text text-anchor="start" x="569.825" y="-463.3" font-family="Times,serif" font-size="14.00">id :integer</text>
<text text-anchor="start" x="569.825" y="-449.3" font-family="Times,serif" font-size="14.00">car_license :character varying</text>
<text text-anchor="start" x="569.825" y="-435.3" font-family="Times,serif" font-size="14.00">description :text</text>
<text text-anchor="start" x="569.825" y="-421.3" font-family="Times,serif" font-size="14.00">enter_date :date</text>
<text text-anchor="start" x="569.825" y="-407.3" font-family="Times,serif" font-size="14.00">car_category :character varying</text>
<text text-anchor="start" x="569.825" y="-393.3" font-family="Times,serif" font-size="14.00">car_subcategory :character varying</text>
<text text-anchor="start" x="569.825" y="-379.3" font-family="Times,serif" font-size="14.00">created_at :timestamp without time zone</text>
<text text-anchor="start" x="569.825" y="-365.3" font-family="Times,serif" font-size="14.00">updated_at :timestamp without time zone</text>
<text text-anchor="start" x="569.825" y="-351.3" font-family="Times,serif" font-size="14.00">user_id :integer</text>
</g>
<!-- CarStatus -->
<g id="node5" class="node"><title>CarStatus</title>
<path fill="none" stroke="black" d="M573.825,-193.5C573.825,-193.5 797.55,-193.5 797.55,-193.5 803.55,-193.5 809.55,-199.5 809.55,-205.5 809.55,-205.5 809.55,-295.5 809.55,-295.5 809.55,-301.5 803.55,-307.5 797.55,-307.5 797.55,-307.5 573.825,-307.5 573.825,-307.5 567.825,-307.5 561.825,-301.5 561.825,-295.5 561.825,-295.5 561.825,-205.5 561.825,-205.5 561.825,-199.5 567.825,-193.5 573.825,-193.5"/>
<text text-anchor="middle" x="685.688" y="-292.3" font-family="Times,serif" font-size="14.00">CarStatus</text>
<polyline fill="none" stroke="black" points="561.825,-285.5 809.55,-285.5 "/>
<text text-anchor="start" x="569.825" y="-270.3" font-family="Times,serif" font-size="14.00">id :integer</text>
<text text-anchor="start" x="569.825" y="-256.3" font-family="Times,serif" font-size="14.00">description :text</text>
<text text-anchor="start" x="569.825" y="-242.3" font-family="Times,serif" font-size="14.00">status :boolean</text>
<text text-anchor="start" x="569.825" y="-228.3" font-family="Times,serif" font-size="14.00">created_at :timestamp without time zone</text>
<text text-anchor="start" x="569.825" y="-214.3" font-family="Times,serif" font-size="14.00">updated_at :timestamp without time zone</text>
<text text-anchor="start" x="569.825" y="-200.3" font-family="Times,serif" font-size="14.00">car_id :integer</text>
</g>
<!-- Car&#45;&gt;CarStatus -->
<g id="edge1" class="edge"><title>Car&#45;&gt;CarStatus</title>
<path fill="none" stroke="#40171d" d="M685.688,-336.308C685.688,-330.084 685.688,-323.862 685.688,-317.774"/>
<ellipse fill="none" stroke="#40171d" cx="685.688" cy="-340.458" rx="4" ry="4"/>
<polygon fill="#40171d" stroke="#40171d" points="685.688,-317.68 690.188,-307.68 685.688,-312.68 685.688,-307.68 685.688,-307.68 685.688,-307.68 685.688,-312.68 681.188,-307.68 685.688,-317.68 685.688,-317.68"/>
</g>
<!-- CarImage -->
<g id="node4" class="node"><title>CarImage</title>
<path fill="none" stroke="black" d="M553.222,-0.5C553.222,-0.5 818.154,-0.5 818.154,-0.5 824.154,-0.5 830.154,-6.5 830.154,-12.5 830.154,-12.5 830.154,-144.5 830.154,-144.5 830.154,-150.5 824.154,-156.5 818.154,-156.5 818.154,-156.5 553.222,-156.5 553.222,-156.5 547.222,-156.5 541.222,-150.5 541.222,-144.5 541.222,-144.5 541.222,-12.5 541.222,-12.5 541.222,-6.5 547.222,-0.5 553.222,-0.5"/>
<text text-anchor="middle" x="685.688" y="-141.3" font-family="Times,serif" font-size="14.00">CarImage</text>
<polyline fill="none" stroke="black" points="541.222,-134.5 830.154,-134.5 "/>
<text text-anchor="start" x="549.222" y="-119.3" font-family="Times,serif" font-size="14.00">id :integer</text>
<text text-anchor="start" x="549.222" y="-105.3" font-family="Times,serif" font-size="14.00">image_name :character varying</text>
<text text-anchor="start" x="549.222" y="-91.3" font-family="Times,serif" font-size="14.00">created_at :timestamp without time zone</text>
<text text-anchor="start" x="549.222" y="-77.3" font-family="Times,serif" font-size="14.00">updated_at :timestamp without time zone</text>
<text text-anchor="start" x="549.222" y="-63.3" font-family="Times,serif" font-size="14.00">image_file_name :character varying</text>
<text text-anchor="start" x="549.222" y="-49.3" font-family="Times,serif" font-size="14.00">image_content_type :character varying</text>
<text text-anchor="start" x="549.222" y="-35.3" font-family="Times,serif" font-size="14.00">image_file_size :integer</text>
<text text-anchor="start" x="549.222" y="-21.3" font-family="Times,serif" font-size="14.00">image_updated_at :timestamp without time zone</text>
<text text-anchor="start" x="549.222" y="-7.3" font-family="Times,serif" font-size="14.00">car_status_id :integer</text>
</g>
<!-- CarStatus&#45;&gt;CarImage -->
<g id="edge2" class="edge"><title>CarStatus&#45;&gt;CarImage</title>
<path fill="none" stroke="#72cd73" d="M685.688,-185.228C685.688,-179.22 685.688,-173.064 685.688,-166.892"/>
<ellipse fill="none" stroke="#72cd73" cx="685.688" cy="-189.365" rx="4" ry="4"/>
<polygon fill="#72cd73" stroke="#72cd73" points="685.688,-166.513 690.188,-156.513 685.688,-161.513 685.688,-156.513 685.688,-156.513 685.688,-156.513 685.688,-161.513 681.188,-156.513 685.688,-166.513 685.688,-166.513"/>
</g>
<!-- User -->
<g id="node6" class="node"><title>User</title>
<path fill="none" stroke="black" d="M573.825,-558.5C573.825,-558.5 797.55,-558.5 797.55,-558.5 803.55,-558.5 809.55,-564.5 809.55,-570.5 809.55,-570.5 809.55,-716.5 809.55,-716.5 809.55,-722.5 803.55,-728.5 797.55,-728.5 797.55,-728.5 573.825,-728.5 573.825,-728.5 567.825,-728.5 561.825,-722.5 561.825,-716.5 561.825,-716.5 561.825,-570.5 561.825,-570.5 561.825,-564.5 567.825,-558.5 573.825,-558.5"/>
<text text-anchor="middle" x="685.688" y="-713.3" font-family="Times,serif" font-size="14.00">User</text>
<polyline fill="none" stroke="black" points="561.825,-706.5 809.55,-706.5 "/>
<text text-anchor="start" x="569.825" y="-691.3" font-family="Times,serif" font-size="14.00">id :integer</text>
<text text-anchor="start" x="569.825" y="-677.3" font-family="Times,serif" font-size="14.00">first_name :character varying</text>
<text text-anchor="start" x="569.825" y="-663.3" font-family="Times,serif" font-size="14.00">last_name :character varying</text>
<text text-anchor="start" x="569.825" y="-649.3" font-family="Times,serif" font-size="14.00">gender :text</text>
<text text-anchor="start" x="569.825" y="-635.3" font-family="Times,serif" font-size="14.00">birth_date :date</text>
<text text-anchor="start" x="569.825" y="-621.3" font-family="Times,serif" font-size="14.00">email :character varying</text>
<text text-anchor="start" x="569.825" y="-607.3" font-family="Times,serif" font-size="14.00">mobile_number :text</text>
<text text-anchor="start" x="569.825" y="-593.3" font-family="Times,serif" font-size="14.00">password :text</text>
<text text-anchor="start" x="569.825" y="-579.3" font-family="Times,serif" font-size="14.00">created_at :timestamp without time zone</text>
<text text-anchor="start" x="569.825" y="-565.3" font-family="Times,serif" font-size="14.00">updated_at :timestamp without time zone</text>
</g>
<!-- User&#45;&gt;Car -->
<g id="edge3" class="edge"><title>User&#45;&gt;Car</title>
<path fill="none" stroke="#ab85fc" d="M685.688,-550.409C685.688,-537.395 685.688,-524.044 685.688,-511.117"/>
<ellipse fill="none" stroke="#ab85fc" cx="685.688" cy="-554.455" rx="4" ry="4"/>
<polygon fill="#ab85fc" stroke="#ab85fc" points="685.688,-510.856 690.188,-500.856 685.688,-505.856 685.688,-500.856 685.688,-500.856 685.688,-500.856 685.688,-505.856 681.188,-500.856 685.688,-510.856 685.688,-510.856"/>
</g>
</g>
</svg>
